<svg xmlns="http://www.w3.org/2000/svg" viewBox="0 0 218 160.6"><defs><linearGradient id="a" x1="-1427.9" y1="-2051.68" x2="-1421.95" y2="-2051.68" gradientTransform="matrix(0 27 -.83 0 -1601.49 38547.94)" gradientUnits="userSpaceOnUse"><stop offset="0" stop-color="#1a1f46"/><stop offset=".35" stop-color="#1a1f46"/><stop offset=".47" stop-color="#2b4a83"/><stop offset=".55" stop-color="#3564a8"/><stop offset=".61" stop-color="#3464a4"/><stop offset=".66" stop-color="#326499"/><stop offset=".71" stop-color="#2f6386"/><stop offset=".77" stop-color="#2a636b"/><stop offset=".82" stop-color="#246248"/><stop offset=".85" stop-color="#206230"/><stop offset="1" stop-color="#206230"/></linearGradient></defs><path fill="url(#a)" d="M0 0H218V160.6H0z"/><path d="M66.91 76.73h46.75c-.41-9.24-2.77-18.76-9.91-24.87-8.51-7.29-23.4-10-36.72-10-13.85 0-29.18 3-37.73 10.78-7.37 6.73-9 17.57-9 27.3 0 10.19 3.12 22 11.12 28.88C40 116.09 53.74 118 67 118c12.92 0 26.9-2.17 35.36-9.07s11.34-18.5 11.34-29H66.91zm49.89 3.17v36.42h65a18 18 0 0 0 17.08-17.94c0-9.63-7.57-18-17.08-18.45zM197.72 60a16.52 16.52 0 0 0-16.63-16.6c-.64 0-1.43-.12-2.06-.06H116.8v33.39h65.56A16.78 16.78 0 0 0 197.72 60z" fill="#fff"/></svg>