<svg xmlns="http://www.w3.org/2000/svg" viewBox="0 0 218 169.61"><path d="M215.94 109.14v-2.61h-.68l-.79 1.79-.78-1.79H213v2.61h.49v-2l.74 1.7h.5l.73-1.7v2zm-4.32 0V107h.87v-.44h-2.22v.44h.87v2.17z" fill="#0099df"/><path d="M138.48 120.38h-59v-106h59z" fill="#6c6bbd"/><path d="M83.29 67.39a67.29 67.29 0 0 1 25.74-53 67.39 67.39 0 1 0 0 106 67.3 67.3 0 0 1-25.74-53" fill="#eb001b"/><path d="M218 67.39a67.39 67.39 0 0 1-109 53 67.4 67.4 0 0 0 0-106 67.38 67.38 0 0 1 109 53" fill="#0099df"/><path d="M158.36 150.31a8.27 8.27 0 0 1 2.77.49l-1.2 3.66a6.44 6.44 0 0 0-2.43-.45c-2.55 0-3.82 1.65-3.82 4.61v10h-3.9v-17.86h3.86v2.17a5.28 5.28 0 0 1 4.72-2.62m-14.39 4h-6.36v8.09c0 1.79.63 3 2.58 3a7.07 7.07 0 0 0 3.44-1l1.12 3.33a9.1 9.1 0 0 1-4.86 1.39c-4.6 0-6.21-2.47-6.21-6.63v-8.16h-3.63v-3.55h3.63v-5.43h3.93v5.43H144zm-49.82 3.82c.41-2.58 2-4.34 4.75-4.34 2.51 0 4.12 1.57 4.53 4.34zm13.32 1.57c0-5.57-3.48-9.39-8.5-9.39-5.24 0-8.9 3.82-8.9 9.39s3.81 9.4 9.17 9.4a10.89 10.89 0 0 0 7.33-2.51l-1.91-2.88a8.48 8.48 0 0 1-5.2 1.87c-2.5 0-4.79-1.16-5.35-4.38h13.29c0-.49.07-1 .07-1.5m17.11-4.37a11.46 11.46 0 0 0-5.58-1.54c-2.13 0-3.4.79-3.4 2.1s1.34 1.53 3 1.75l1.83.26c3.9.57 6.25 2.22 6.25 5.36 0 3.41-3 5.84-8.16 5.84a12.94 12.94 0 0 1-7.75-2.32l1.84-3a9.48 9.48 0 0 0 6 1.88c2.66 0 4.08-.79 4.08-2.18 0-1-1-1.57-3.14-1.86l-1.84-.26c-4-.57-6.18-2.37-6.18-5.28 0-3.56 2.93-5.73 7.46-5.73a13.4 13.4 0 0 1 7.29 1.87zm48-1.32a5.86 5.86 0 0 0-2.23.42 5.22 5.22 0 0 0-1.79 1.18 5.45 5.45 0 0 0-1.18 1.82 6.55 6.55 0 0 0 0 4.67 5.55 5.55 0 0 0 1.18 1.82 5.22 5.22 0 0 0 1.79 1.18 6.13 6.13 0 0 0 4.46 0 5.22 5.22 0 0 0 1.79-1.18 5.6 5.6 0 0 0 1.2-1.82 6.7 6.7 0 0 0 0-4.67 5.5 5.5 0 0 0-1.2-1.82 5.22 5.22 0 0 0-1.79-1.18 5.86 5.86 0 0 0-2.23-.42m0-3.7a10.11 10.11 0 0 1 3.85.72 9.35 9.35 0 0 1 3.07 2 9 9 0 0 1 2 3 10 10 0 0 1 0 7.51 9 9 0 0 1-2 3 9.2 9.2 0 0 1-3.07 2 10.68 10.68 0 0 1-7.71 0 9.16 9.16 0 0 1-5.07-5 10 10 0 0 1 0-7.51 9.13 9.13 0 0 1 2-3 9.26 9.26 0 0 1 3-2 10.16 10.16 0 0 1 3.86-.72M71.4 159.7c0-3.14 2.06-5.72 5.43-5.72 3.22 0 5.39 2.47 5.39 5.72s-2.17 5.73-5.39 5.73c-3.37 0-5.43-2.58-5.43-5.73m14.49 0v-8.94H82v2.17a6.8 6.8 0 0 0-5.65-2.62c-5 0-8.95 3.93-8.95 9.39s3.93 9.4 8.95 9.4a6.8 6.8 0 0 0 5.65-2.62v2.17h3.89zm-21.93 9v-11.28c0-4.23-2.7-7.07-7-7.11a6.93 6.93 0 0 0-6.29 3.18 6.57 6.57 0 0 0-5.92-3.18 5.93 5.93 0 0 0-5.28 2.69v-2.2h-3.89v17.89h3.93v-9.92c0-3.1 1.72-4.75 4.38-4.75s3.9 1.68 3.9 4.71v10h3.92v-9.92c0-3.1 1.8-4.75 4.38-4.75s3.91 1.6 3.91 4.63v10zm122.51-1.39v.44h.4a.36.36 0 0 0 .22-.06.17.17 0 0 0 .09-.16.19.19 0 0 0-.09-.17.45.45 0 0 0-.22-.05zm.41-.31a.79.79 0 0 1 .49.14.49.49 0 0 1 .17.39.48.48 0 0 1-.14.34.7.7 0 0 1-.39.16l.54.62h-.42l-.5-.62h-.16v.62h-.36V167zm-.11 2.22a1.41 1.41 0 0 0 .54-.11 1.28 1.28 0 0 0 .43-.3 1.23 1.23 0 0 0 .3-.44 1.38 1.38 0 0 0 0-1.08 1.23 1.23 0 0 0-.3-.44 1.37 1.37 0 0 0-1-.4 1.37 1.37 0 0 0-.54.11 1.29 1.29 0 0 0-.45.29 1.35 1.35 0 0 0-.29.44 1.38 1.38 0 0 0 0 1.08 1.35 1.35 0 0 0 .29.44 1.19 1.19 0 0 0 .45.3 1.37 1.37 0 0 0 .54.11m0-3.17a1.66 1.66 0 0 1 .7.15 1.62 1.62 0 0 1 .58.38 1.76 1.76 0 0 1 .39.56 1.81 1.81 0 0 1 .14.69 1.74 1.74 0 0 1-.14.69 1.87 1.87 0 0 1-.39.56 1.8 1.8 0 0 1-.58.39 1.82 1.82 0 0 1-.7.14 1.92 1.92 0 0 1-.72-.14 1.75 1.75 0 0 1-.57-.39 1.57 1.57 0 0 1-.39-.56 1.74 1.74 0 0 1-.14-.69 1.81 1.81 0 0 1 .14-.69 1.49 1.49 0 0 1 .39-.56 1.59 1.59 0 0 1 .57-.38 1.75 1.75 0 0 1 .72-.15" fill="#231f20"/></svg>