<svg xmlns="http://www.w3.org/2000/svg" viewBox="0 0 218 169.4"><path d="M37.35 152.06a6.5 6.5 0 0 0-2.22-1.46 7.41 7.41 0 0 0-2.82-.52 10 10 0 0 0-1.69.14 7.07 7.07 0 0 0-1.71.49 6.33 6.33 0 0 0-1.59 1 5.86 5.86 0 0 0-1.32 1.55 6.45 6.45 0 0 0-2.44-2.34 7.21 7.21 0 0 0-3.52-.84 8.4 8.4 0 0 0-1.38.12 6.29 6.29 0 0 0-1.41.42 5.64 5.64 0 0 0-1.34.81 5.39 5.39 0 0 0-1.16 1.29v-2.18H11v17.83h3.78v-9.88a5.31 5.31 0 0 1 .36-2 4.28 4.28 0 0 1 1-1.48 3.87 3.87 0 0 1 1.41-.9 4.74 4.74 0 0 1 1.73-.31 3.7 3.7 0 0 1 3 1.21 5.13 5.13 0 0 1 1.06 3.46v9.92h3.78v-9.88a5.31 5.31 0 0 1 .36-2 4.41 4.41 0 0 1 1-1.48 3.91 3.91 0 0 1 1.42-.9 4.7 4.7 0 0 1 1.73-.31 3.7 3.7 0 0 1 3 1.21 5.13 5.13 0 0 1 1.05 3.46v9.92h3.78v-11.2a7.83 7.83 0 0 0-.51-2.87 6.42 6.42 0 0 0-1.6-2.28zm19.95.64a7 7 0 0 0-2.3-1.91 7.13 7.13 0 0 0-3.29-.71 8.73 8.73 0 0 0-6.33 2.64 9 9 0 0 0-1.9 3 10.64 10.64 0 0 0 0 7.54 9.16 9.16 0 0 0 1.9 3 8.73 8.73 0 0 0 6.33 2.64 7.13 7.13 0 0 0 3.29-.71 6.78 6.78 0 0 0 2.31-1.9v2.14h3.89v-17.89h-3.9zm-.15 9a5.38 5.38 0 0 1-1.1 1.8 5 5 0 0 1-1.69 1.2 5.24 5.24 0 0 1-2.2.44 5.46 5.46 0 0 1-2.26-.45 5.22 5.22 0 0 1-1.68-1.23 5.32 5.32 0 0 1-1.06-1.82 6.45 6.45 0 0 1-.38-2.21 6.55 6.55 0 0 1 .38-2.22 5.27 5.27 0 0 1 1.06-1.81 4.94 4.94 0 0 1 1.68-1.23 5.46 5.46 0 0 1 2.26-.46 5.4 5.4 0 0 1 2.2.44 5 5 0 0 1 1.69 1.2 5.43 5.43 0 0 1 1.1 1.81 6.8 6.8 0 0 1 0 4.54zm21.92-2.27a9.54 9.54 0 0 0-4.56-1.7l-1.84-.28c-.41-.06-.8-.14-1.16-.22a4 4 0 0 1-.93-.32 1.78 1.78 0 0 1-.62-.52 1.24 1.24 0 0 1-.23-.78 1.77 1.77 0 0 1 .88-1.54 4.49 4.49 0 0 1 2.49-.59 9 9 0 0 1 1.64.15c.54.1 1.05.23 1.54.37a11.77 11.77 0 0 1 1.32.5c.4.18.73.35 1 .51l1.67-3a11.37 11.37 0 0 0-3.27-1.42 15.35 15.35 0 0 0-4-.49 10.73 10.73 0 0 0-3.07.4 6.88 6.88 0 0 0-2.32 1.13 4.92 4.92 0 0 0-1.47 1.8 5.4 5.4 0 0 0-.51 2.38 4.41 4.41 0 0 0 1.53 3.49 8.55 8.55 0 0 0 4.58 1.7l1.86.24a5.76 5.76 0 0 1 2.34.72 1.47 1.47 0 0 1 .75 1.25 1.77 1.77 0 0 1-1 1.6 6.23 6.23 0 0 1-3 .58 11.49 11.49 0 0 1-2-.15 9.34 9.34 0 0 1-1.58-.4 7.7 7.7 0 0 1-1.29-.57 9.12 9.12 0 0 1-1-.7l-1.81 2.92a9.69 9.69 0 0 0 2 1.17 13.87 13.87 0 0 0 2.09.7 13.31 13.31 0 0 0 1.93.34c.61 0 1.14.08 1.6.08a12.5 12.5 0 0 0 3.44-.43 7.54 7.54 0 0 0 2.55-1.2 5.32 5.32 0 0 0 1.58-1.84 5 5 0 0 0 .55-2.36 4.27 4.27 0 0 0-1.68-3.52zm36.42-6.76a7.61 7.61 0 0 0-2.66-1.91 8.32 8.32 0 0 0-3.42-.68 9.16 9.16 0 0 0-3.6.68 8.16 8.16 0 0 0-2.8 1.91 8.77 8.77 0 0 0-1.82 3 10.68 10.68 0 0 0-.65 3.82 10.51 10.51 0 0 0 .67 3.85 8.47 8.47 0 0 0 1.88 3 8.27 8.27 0 0 0 2.88 1.9 10 10 0 0 0 3.69.67 13.25 13.25 0 0 0 3.86-.56 9.66 9.66 0 0 0 3.47-1.95l-1.94-2.78a8.54 8.54 0 0 1-2.46 1.39 7.78 7.78 0 0 1-2.69.49 6.12 6.12 0 0 1-1.82-.26 4.61 4.61 0 0 1-1.59-.81 4.88 4.88 0 0 1-1.21-1.4 6 6 0 0 1-.69-2.07h13.18c0-.22 0-.46.06-.71s0-.49 0-.74a11 11 0 0 0-.63-3.81 9 9 0 0 0-1.71-3.03zm-10.88 5.26a7.08 7.08 0 0 1 .52-1.78 4.78 4.78 0 0 1 1-1.39 4 4 0 0 1 1.4-.9 5.09 5.09 0 0 1 1.85-.32 4.13 4.13 0 0 1 3 1.15 5.52 5.52 0 0 1 1.49 3.24zm62.56-5.23a6.72 6.72 0 0 0-5.6-2.62 8.73 8.73 0 0 0-6.33 2.64 9 9 0 0 0-1.9 3 10.64 10.64 0 0 0 0 7.54 9.16 9.16 0 0 0 1.9 3 8.73 8.73 0 0 0 6.33 2.64 7.1 7.1 0 0 0 3.29-.71 6.78 6.78 0 0 0 2.31-1.9v2.14h3.89v-17.89h-3.89zm-.15 9a5.22 5.22 0 0 1-1.1 1.8 5 5 0 0 1-1.69 1.2 5.24 5.24 0 0 1-2.2.44 5.46 5.46 0 0 1-2.26-.45 5.22 5.22 0 0 1-1.68-1.23 5.48 5.48 0 0 1-1.06-1.82 6.45 6.45 0 0 1-.37-2.21 6.55 6.55 0 0 1 .37-2.22 5.44 5.44 0 0 1 1.06-1.81 4.94 4.94 0 0 1 1.68-1.23 5.46 5.46 0 0 1 2.26-.46 5.4 5.4 0 0 1 2.2.44 5 5 0 0 1 1.69 1.2 5.27 5.27 0 0 1 1.1 1.81 6.8 6.8 0 0 1 0 4.54zm-71.27 3.12a5.35 5.35 0 0 1-1.85.35 3.31 3.31 0 0 1-1.11-.18 2.32 2.32 0 0 1-.89-.59 2.82 2.82 0 0 1-.61-1 4.62 4.62 0 0 1-.22-1.53v-7.76h6.25v-3.54h-6.25v-5.39h-3.91v5.39h-3.55v3.54h3.55v7.83q0 3.56 1.68 5.24a6.37 6.37 0 0 0 4.72 1.69 8.59 8.59 0 0 0 3-.52 13.35 13.35 0 0 0 1.66-.78l-1.33-3.26a10.76 10.76 0 0 1-1.14.51zm35.12-14.74a7.24 7.24 0 0 0-3 .59 6.43 6.43 0 0 0-2.22 2.21v-2.34h-3.53v17.83h3.57v-9.81a6 6 0 0 1 .32-2 4.37 4.37 0 0 1 .87-1.51 3.68 3.68 0 0 1 1.34-.93 4.54 4.54 0 0 1 1.72-.32 7.69 7.69 0 0 1 1.52.17 7.32 7.32 0 0 1 .78.21l1.15-3.72a6 6 0 0 0-1-.24 9.87 9.87 0 0 0-1.52-.14zm54.07 0a7.24 7.24 0 0 0-3 .59 6.32 6.32 0 0 0-2.21 2.21v-2.34h-3.53v17.83h3.57v-9.81a6 6 0 0 1 .31-2A4.24 4.24 0 0 1 181 155a3.6 3.6 0 0 1 1.34-.93 4.53 4.53 0 0 1 1.71-.32 7.86 7.86 0 0 1 1.53.17q.4.09.78.21l1.15-3.72a6.13 6.13 0 0 0-1-.24 9.78 9.78 0 0 0-1.57-.09zm18.17-6.78v9.4a6.72 6.72 0 0 0-5.6-2.62 8.73 8.73 0 0 0-6.33 2.64 9 9 0 0 0-1.9 3 10.64 10.64 0 0 0 0 7.54 9.16 9.16 0 0 0 1.9 3 8.73 8.73 0 0 0 6.33 2.64 7.1 7.1 0 0 0 3.29-.71 6.78 6.78 0 0 0 2.31-1.9v2.14H207V143.3zm-.11 18.43a5.22 5.22 0 0 1-1.1 1.8 5 5 0 0 1-1.69 1.2 5.24 5.24 0 0 1-2.2.44 5.46 5.46 0 0 1-2.26-.45 5.22 5.22 0 0 1-1.68-1.23 5.48 5.48 0 0 1-1.06-1.82 6.45 6.45 0 0 1-.37-2.21 6.55 6.55 0 0 1 .37-2.22 5.44 5.44 0 0 1 1.06-1.81 4.94 4.94 0 0 1 1.68-1.23 5.46 5.46 0 0 1 2.26-.46 5.4 5.4 0 0 1 2.2.44 5 5 0 0 1 1.69 1.2 5.27 5.27 0 0 1 1.1 1.81 6.8 6.8 0 0 1 0 4.54zm-62.82-6.39a5 5 0 0 1 1.77-1.18 5.76 5.76 0 0 1 2.21-.42 7 7 0 0 1 2.44.42 6 6 0 0 1 1.89 1.13l1.87-3.12a9.57 9.57 0 0 0-2.37-1.38 10.66 10.66 0 0 0-7.65 0 9.19 9.19 0 0 0-3 2 9 9 0 0 0-2 3 10 10 0 0 0 0 7.44 9 9 0 0 0 5 4.94 10.52 10.52 0 0 0 7.65 0 9.57 9.57 0 0 0 2.37-1.38l-1.87-3.11a6 6 0 0 1-1.89 1.12 7 7 0 0 1-2.44.42 5.76 5.76 0 0 1-2.21-.42 5.16 5.16 0 0 1-1.77-1.17 5.29 5.29 0 0 1-1.17-1.8 6.06 6.06 0 0 1-.43-2.32 6 6 0 0 1 .43-2.32 5.29 5.29 0 0 1 1.17-1.85zm75.02 10.42a1.89 1.89 0 0 1 .72.14 1.91 1.91 0 0 1 .6.4 1.78 1.78 0 0 1 .4.57 1.87 1.87 0 0 1 .14.71 1.76 1.76 0 0 1-.54 1.28 1.91 1.91 0 0 1-.6.4 1.89 1.89 0 0 1-.72.14 2 2 0 0 1-.74-.14 1.91 1.91 0 0 1-.6-.4 1.76 1.76 0 0 1-.54-1.28 1.87 1.87 0 0 1 .14-.71 1.78 1.78 0 0 1 .4-.57 1.91 1.91 0 0 1 .6-.4 2 2 0 0 1 .74-.14zm0 3.13a1.25 1.25 0 0 0 .51-.1 1.3 1.3 0 0 0 .41-.28 1.34 1.34 0 0 0 .28-.42 1.35 1.35 0 0 0 0-1 1.34 1.34 0 0 0-.28-.42 1.3 1.3 0 0 0-.41-.28 1.25 1.25 0 0 0-.51-.1 1.27 1.27 0 0 0-.52.1 1.34 1.34 0 0 0-.42.28 1.19 1.19 0 0 0-.28.42 1.35 1.35 0 0 0 0 1 1.19 1.19 0 0 0 .28.42 1.34 1.34 0 0 0 .42.28 1.27 1.27 0 0 0 .52.1zm.1-2.12a.78.78 0 0 1 .51.15.51.51 0 0 1 .17.4.44.44 0 0 1-.13.32.68.68 0 0 1-.35.17l.5.57h-.54l-.45-.56H215v.56h-.45v-1.61zm-.35.4v.29h.34a.4.4 0 0 0 .17 0 .13.13 0 0 0 0-.11.15.15 0 0 0 0-.12.4.4 0 0 0-.17 0z" fill="#1d1d1b"/><g><path d="M83.36 67.2a67.06 67.06 0 0 1 25.52-52.69 67.19 67.19 0 1 0 0 105.38A67.06 67.06 0 0 1 83.36 67.2z" fill="#e20d17"/><ellipse cx="108.88" cy="67.2" rx="25.52" ry="52.69" fill="#ea610a"/><path d="M213.2 103.54v-2h-.8V101h2.18v.54h-.79v2zm4.21 0v-1.74l-.56 1.5h-.62l-.57-1.49v1.73h-.59V101h.85l.62 1.6.62-1.6h.84v2.5z" fill="#f59e00"/><path d="M150.56 0a66.85 66.85 0 0 0-41.68 14.51 67.17 67.17 0 0 1 0 105.38A67.19 67.19 0 1 0 150.56 0z" fill="#f59e00"/></g></svg>