<svg viewBox="0 0 218 66.83" xmlns="http://www.w3.org/2000/svg"><g fill-rule="evenodd"><g fill="#005098"><path d="m76.75 65.85 11.08-64.78h17.69l-11.08 64.78z"/><path d="m158.5 2.68a47.49 47.49 0 0 0 -15.82-2.68c-17.51 0-29.75 8.76-29.84 21.35-.09 9.29 8.76 14.48 15.46 17.6 6.88 3.22 9.2 5.19 9.11 8 0 4.38-5.45 6.35-10.54 6.35a37 37 0 0 1 -16.62-3.4l-2.32-1.07-2.41 14.47c4.11 1.88 11.7 3.4 19.65 3.49 18.58 0 30.56-8.67 30.74-22.16.09-7.32-4.65-13-14.84-17.6-6.16-2.95-9.91-4.91-9.91-7.95 0-2.77 3.21-5.63 10.09-5.63a31.89 31.89 0 0 1 13.23 2.55l1.6.72 2.42-14z"/><path d="m203.79 1.16h-13.67c-4.19 0-7.41 1.16-9.29 5.36l-26.18 59.42h18.5s3-8 3.75-9.74h22.61c.53 2.23 2.14 9.74 2.14 9.74h16.35zm-21.79 41.73c1.43-3.67 7.06-18 7.06-18-.18.18 1.43-3.75 2.33-6.17l1.16 5.54s3.39 15.46 4.11 18.68z"/><path d="m62 1.16-17.33 44.14-1.78-8.94c-3.22-10.36-13.32-21.53-24.49-27.16l15.82 56.65h18.67l27.79-64.69z"/></g><path d="m28.68 1.07h-28.5l-.18 1.43c22.07 5.36 36.81 18.32 42.89 33.86l-6.26-29.75c-1.07-4.11-4.11-5.36-8-5.54z" fill="#f7a600"/></g></svg>